<svg xmlns="http://www.w3.org/2000/svg" width="173" height="32" viewBox="0 0 173 32"><g><g><g><path fill="#6994a8" d="M165.71 19.754c-.001.778.321 1.525.896 2.075.573.55 1.35.86 2.161.86 1.69 0 3.06-1.318 3.06-2.935.001-.778-.322-1.524-.896-2.073a3.111 3.111 0 0 0-2.164-.862c-.81 0-1.589.31-2.16.862a2.864 2.864 0 0 0-.897 2.073zm3.057 3.524c-.973.001-1.906-.37-2.595-1.03a3.42 3.42 0 0 1-1.08-2.494c0-1.944 1.657-3.525 3.675-3.525a3.74 3.74 0 0 1 2.602 1.03 3.44 3.44 0 0 1 1.075 2.495 3.447 3.447 0 0 1-1.075 2.494 3.75 3.75 0 0 1-2.602 1.03zm-68.669-12.022c0-1.213-.315-1.966-.833-2.598-.558-.67-1.69-.92-2.651-.92l-4.963.149V5.54l5.97-.145s2.827-.115 4.406 1.086c1.103.84 1.84 2.176 1.84 4.475v11.986l-7.216.15s-3.27.01-4.912-.628c-1.606-.626-2.483-2.344-2.483-4.728 0-2.3.74-3.637 1.837-4.477 1.579-1.203 4.411-1.084 4.411-1.084h2.303v2.043h-1.295c-.961 0-1.963.172-2.51.842-.518.625-.796 1.169-.796 2.382 0 1.592.324 2.302 1.103 2.844.688.482 1.93.587 3.308.587l2.482-.145zm-63.487 0c0-1.213-.322-1.966-.84-2.598-.55-.67-1.682-.92-2.65-.92l-4.962.149V5.54l5.972-.145s2.826-.115 4.406 1.086c1.102.84 1.834 2.176 1.834 4.475v11.986l-7.21.15s-3.264.01-4.909-.628c-1.602-.626-2.477-2.344-2.477-4.728 0-2.3.734-3.637 1.836-4.477 1.58-1.203 4.404-1.084 4.404-1.084h2.303v2.043h-1.292c-.967 0-1.961.172-2.515.842-.515.625-.79 1.169-.79 2.382 0 1.592.32 2.302 1.101 2.844.69.482 1.925.587 3.303.587l2.486-.145zm75.408-5.861h4.235V7.57h-4.235v9.994s0 1.25.134 2.294c.137 1.047.921 1.088 1.56 1.088s1.696-.073 1.696-.073v2.177l-3.895.073c-2.163 0-2.982-1.293-3.077-1.838-.09-.545-.179-2.094-.179-2.094V2.217h3.76zm38.97 17.718h-3.73V5.54l8.427-.145s2.826-.115 4.404 1.086c1.106.84 1.844 2.176 1.844 4.475v12.156h-3.766V11.256c0-1.213-.324-1.966-.837-2.598-.551-.67-1.688-.92-2.652-.92l-3.69.149zM132.6 8.645c-.519.613-1.15 1.898-1.15 5.62 0 3.72.631 5.008 1.149 5.617.516.607 1.467 1.016 2.698 1.016 1.233 0 2.18-.41 2.703-1.015.515-.61 1.146-1.898 1.146-5.617 0-3.723-.63-5.009-1.146-5.62-.523-.607-1.47-1.014-2.703-1.014-1.23 0-2.182.406-2.698 1.014zm2.58-3.4c2.56 0 4.548.549 5.614 1.376 1.078.83 2.401 2.58 2.401 7.644 0 5.065-1.323 6.813-2.4 7.645-1.068.827-3.054 1.38-5.616 1.38-2.568 0-4.546-.553-5.621-1.38-1.075-.832-2.393-2.58-2.393-7.645 0-5.064 1.318-6.814 2.393-7.644 1.075-.827 3.053-1.376 5.621-1.376zM119.52 0h3.763v3.22h-3.763zm0 5.397h3.763v17.726h-3.763zm-36.33-3.18v3.178h4.258V7.57H83.19v9.994s0 1.25.141 2.294c.133 1.047.917 1.088 1.564 1.088.638 0 1.696-.073 1.696-.073v2.177l-3.905.073c-2.16 0-2.988-1.293-3.08-1.838-.093-.545-.184-2.094-.184-2.094V2.217h3.768zM62.645 23.005v-2.187s3.985.15 4.815.15c1.838 0 2.756-.376 3.448-1.087.408-.426.776-2.314.776-2.987 0-.67-.134-2.12-.408-2.713-.282-.582-.924-1.125-1.887-1.204-.686-.056-1.748-.19-2.989-.244-1.74-.08-2.89-.95-3.443-1.575-.55-.626-1.285-1.57-1.285-4.455 0-2.89.78-4.51 1.56-5.26.782-.756 1.925-1.087 2.804-1.236C67.045.04 68.697.03 68.697.03l5.274.147v2.187s-3.846-.147-4.673-.147c-1.84 0-2.391.378-3.08 1.086-.406.422-.724 1.59-.724 2.258 0 .672.082 2.03.358 2.617.273.582.918 1.127 1.883 1.21.684.05 1.747.184 2.986.238 1.748.079 2.896.947 3.443 1.575.555.628 1.291 1.951 1.291 4.834 0 2.89-.785 4.954-1.562 5.708-.784.75-1.925 1.086-2.803 1.231-1.013.167-2.665.18-2.665.18zM46.743 5.396l4.615 12.967L56.32 5.396h3.49L48.42 32h-3.125l3.955-9.29L42.36 5.397zM18.567.001h3.764v23.132h-3.764zm-10.35 0s2.895 0 4.501.709c1.94.86 2.89 3.39 2.89 5.9 0 2.761-.4 4.824-1.974 6.358C12.35 14.22 9.365 14.1 9.365 14.1H6.057v-2.053h2.3c.964 0 2.018-.21 2.66-1.255.424-.684.503-2.553.503-3.762 0-1.13-.134-2.804-.87-3.726-.868-1.086-3.4-1.086-3.4-1.086H3.765v20.914H0V.001z"/></g><g><path fill="#6994a8" d="M169.762 18.818c0 .2-.061.333-.179.406-.135.076-.323.118-.559.118h-1.18V18.33h1.253c.167 0 .307.02.407.06zm.85 2.287c-.058-.018-.101-.073-.125-.156a1.113 1.113 0 0 1-.037-.268l-.018-.46c-.008-.215-.063-.369-.155-.471a.79.79 0 0 0-.25-.176c.126-.07.24-.153.32-.259a.88.88 0 0 0 .164-.543c0-.42-.212-.717-.624-.873-.22-.082-.483-.119-.806-.119h-1.971v3.556h.733v-1.458h1.16c.209 0 .366.018.455.051.15.062.232.188.241.38l.032.57c.01.138.018.226.031.277.02.055.03.099.055.136l.03.044h.819v-.21l-.055-.021z"/></g></g></g></svg>