<svg xmlns="http://www.w3.org/2000/svg" width="111" height="26" viewBox="0 0 111 26"><g><g><g><path fill="#6994a8" d="M23.227 15.85h5.99s-.25-2.804-2.953-2.804-3.037 2.805-3.037 2.805zm10.855 1.61v1.238H23.144c0 1.773 1.497 3.3 3.535 3.3 2.038 0 3.078-1.939 3.078-1.939l3.867 1.897c-1.788 2.683-4.2 3.754-6.903 3.754-8.401 0-8.568-6.93-8.568-7.796 0-.867.126-8.25 8.193-8.25 8.068 0 7.736 7.797 7.736 7.797zm14.098.046c0-3.718-3.826-3.841-3.826-3.841s-3.41.123-3.41 3.924c0 3.8 3.119 3.758 3.369 3.758.249 0 3.867-.123 3.867-3.84zM47.973 0h4.823v25.224h-4.74v-1.905s-1.83 2.146-5.116 2.146c-3.285 0-7.111-2.23-7.111-8.087 0-5.858 4.491-7.714 7.152-7.714 2.663 0 4.992 1.774 4.992 1.774zM84.78 10.447v8.457s.168 2.847 2.872 2.847c2.704 0 2.664-2.847 2.664-2.847v-8.417h4.868v8.706S95.81 26 87.777 26s-7.823-5.982-7.823-7.054v-8.499zM97.982 0h4.762v25.223h-4.762zm8.088 0h4.7v25.223h-4.7zM73.5 17.82c0-2.794-2.448-3.163-3.216-3.163h-2.93v-4.252h1.501s2.607.25 2.607-2.586-3.277-2.592-3.277-2.592h-2.412v15.78h4.512s3.214-.394 3.215-3.187zm5.038.659c0 6.66-7.43 6.744-7.43 6.744H60.74V1.004h8.417c5.025 0 7.386 2.907 7.386 6.13 0 3.222-2.204 4.923-2.204 4.923 2.685 1.074 4.199 2.555 4.198 6.422zM6.883.487c5.822 0 10.189 1.668 10.189 7.894 0 6.227-5.78 6.722-5.78 6.722l7.027 10.11h-5.904L7.381 17.33v-5.691h1.206s3.285.083 3.285-3.257c0-3.34-3.7-3.176-3.7-3.176H5.802v20.008H.77V.486z"/></g></g></g></svg>