<svg xmlns="http://www.w3.org/2000/svg" width="182" height="32" viewBox="0 0 182 32"><g><g><g><path fill="#6994a8" d="M179.866 24.955l.83-2.205h.685v2.984h-.439v-2.489h-.013l-.93 2.49h-.304l-.921-2.49h-.017v2.49h-.44V22.75h.692l.843 2.205zm-2.089-1.885h-.923v2.664h-.44V23.07h-.924v-.32h2.287z"/></g><g><path fill="#6994a8" d="M88.27 20.083c-.17.386-1.073 2.128-3.336 2.128-2.62 0-3.64-2.17-3.64-3.787 0-2.669 1.797-5.068 4.445-5.068 2.846 0 3.525 2.12 3.587 2.505h4.196c.248-1.562-.994-6.351-7.623-6.351-4.857 0-8.729 3.87-8.729 9.047 0 4.235 2.648 7.5 7.555 7.5 6.109 0 7.759-4.793 7.97-5.974H88.27"/></g><g><path fill="#6994a8" d="M56.13 21.256c0-.245.065-.707.278-1.68.217-.973 3.172-14.606 3.172-14.606h-3.93l-3.263 15.035a8.542 8.542 0 0 0-.197 1.808c0 3.294 2.549 4.264 4.599 4.264.73 0 1.406-.116 1.569-.144.072-.326.687-3.16.714-3.287a10.04 10.04 0 0 1-1.02.045c-1.461 0-1.922-.622-1.922-1.435"/></g><g><path fill="#6994a8" d="M111.959 9.563h-5.484l-7.04 6.347 2.37-10.97h-3.951L93.35 25.746h3.962l1.092-5.058 2.436-1.932 3.364 6.99h4.404l-4.773-9.362 8.124-6.82"/></g><g><path fill="#6994a8" d="M47.593 10.675c0 1.234-1.146 2.318-3.397 2.318H40.02l.91-4.203h4.004c1.894 0 2.66.87 2.66 1.885zm-5.377 11.2h-4.115l1.088-5.033h3.63c2.8 0 3.43 1.237 3.43 2.216 0 1.616-1.373 2.816-4.033 2.816zm-2.097 3.871h2.258c4.954 0 8.15-2.901 8.15-6.36 0-3.186-2.492-4.174-2.925-4.316.47-.145 4.3-1.222 4.3-5.275 0-1.836-1.335-4.855-6.77-4.855h-7.496s-2.785 12.886-3.117 14.375c-.795 3.582 1.442 6.431 5.6 6.431z"/></g><g><path fill="#6994a8" d="M123.234 10.675c0 1.234-1.147 2.318-3.397 2.318h-4.173l.905-4.203h4.008c1.888 0 2.657.87 2.657 1.885zm-5.375 11.2h-4.116l1.089-5.033h3.633c2.8 0 3.433 1.237 3.433 2.216 0 1.616-1.373 2.816-4.04 2.816zm-2.102 3.871h2.262c4.954 0 8.147-2.901 8.147-6.36 0-3.186-2.492-4.174-2.926-4.316.473-.145 4.304-1.222 4.304-5.275 0-1.836-1.34-4.855-6.776-4.855h-7.493s-2.785 12.886-3.119 14.375c-.786 3.582 1.447 6.431 5.601 6.431z"/></g><g><path fill="#6994a8" d="M154.72 9.57c-4.19 0-7.04 2.485-8.007 7.144-.406 2.005-1.933 9.047-1.933 9.047h3.932s1.445-6.697 1.903-8.804c.598-2.751 2.059-3.693 4.019-3.693.633 0 1.035.074 1.245.108.111-.562.655-3.047.785-3.657-.42-.054-1.093-.145-1.943-.145"/></g><g><path fill="#6994a8" d="M168.097 31.952L181.283 9.57h-4.243l-6.06 10.533-1.419-10.543h-4.539c-5.196 0-7.893 2.381-8.85 6.932-.48 2.266-2.002 9.27-2.002 9.27h3.93s1.442-6.648 2.02-9.326c.55-2.605 2.483-3.408 4.565-2.963l.83-3.821c.61 3.63 2.484 15.225 2.484 15.225l-4.112 7.075h4.21"/></g><g><path fill="#6994a8" d="M66.003 14.637h-4.44c.291-.678 2.063-5.107 8.218-5.107 4.796 0 6.664 2.41 5.974 5.814a416.944 416.944 0 0 1-1.343 6.205c-.48 2.15-.196 3.493-.048 4.195h-4.068c-.042-.513-.099-1.151-.111-1.579-.136.136-1.674 1.911-4.624 1.911-3.548 0-5.541-2.34-5.541-4.745 0-3.39 2.969-4.85 7.669-5.523 2.729-.392 4.307-.648 4.307-1.627 0-.688-.802-1.264-2.368-1.264-2.518 0-3.53 1.563-3.625 1.72zm-1.899 6.227c0 .903.823 1.66 2.223 1.66 2.196 0 4.187-1.261 4.645-3.221.077-.32.175-.749.239-1.018-.34.047-2.874.436-3.741.56-2.685.405-3.366 1.283-3.366 2.02z"/></g><g><path fill="#6994a8" d="M140.23 16.014h-7.58c.2-.826 1.464-2.912 4.025-2.912 2.651 0 3.662 1.616 3.555 2.912zM139 20.9c-.14.316-1.091 1.65-3.233 1.65-3.076 0-3.777-2.608-3.7-3.325h11.983c.066-.296.335-1.362.335-2.46 0-3.786-2.568-7.255-7.753-7.255-4.742 0-8.543 3.983-8.543 8.722 0 4.577 2.75 7.824 7.615 7.824 6.01 0 7.63-4.712 7.78-5.156h-4.484z"/></g><g><path fill="#6994a8" d="M9.657 2.565C9.657 1.563 9.043.3 6.477.3h-3.96L1.4 5.5h4.115c3.223 0 4.142-1.523 4.142-2.935"/></g><g><path fill="#6994a8" d="M20.304 2.565c0-1.002-.61-2.265-3.18-2.265h-3.95L12.05 5.5h4.117c3.222 0 4.137-1.523 4.137-2.935"/></g><g><path fill="#6994a8" d="M8.22 10.389c0-1-.613-2.259-3.182-2.259H1.085L-.04 13.321h4.125c3.215 0 4.135-1.521 4.135-2.932"/></g><g><path fill="#6994a8" d="M18.876 10.389c0-1-.611-2.259-3.176-2.259h-3.957l-1.123 5.191h4.118c3.221 0 4.138-1.521 4.138-2.932"/></g><g><path fill="#6994a8" d="M30.017 7.215c0-1-.608-2.265-3.176-2.265h-3.955l-1.126 5.2h4.119c3.222 0 4.138-1.523 4.138-2.935"/></g><g><path fill="#6994a8" d="M28.486 15.365c0-.997-.611-2.265-3.18-2.265H21.35l-1.121 5.198h4.12c3.218 0 4.136-1.52 4.136-2.933"/></g><g><path fill="#6994a8" d="M17.345 18.535c0-.998-.608-2.265-3.173-2.265h-3.959L9.09 21.472h4.127c3.214 0 4.128-1.52 4.128-2.937"/></g></g></g></svg>