<svg xmlns="http://www.w3.org/2000/svg" width="243" height="25" viewBox="0 0 243 25"><g><g><g><path fill="#6994a8" d="M.77 0v19.113h2.346V2.368h14.38C18.233 1.25 18.97.507 19.673 0zm17.094 25H36.77V5.886h-2.346v16.711h-14.38c-.703 1.118-1.442 1.895-2.18 2.403zm9.521-17.05c1.071-1.86 3.084-3.146 5.598-3.146h3.787V0H24.635c-2.38 0-4.323.034-6.368 3.45l-8.112 13.6c-1.073 1.827-3.084 3.112-5.598 3.112H.77V25h12.133c2.381 0 4.325-.033 6.403-3.451z"/></g><g><path fill="#6994a8" d="M59.658 19.999H49.77v-3.066h4.358c.837 0 .972-.758.47-1.418l-4.124-5.505C49.368 8.56 49.736 5 53.222 5h9.854v3.033H58.72c-.805 0-.94.79-.436 1.417l4.089 5.539c1.106 1.449.737 5.01-2.715 5.01zm139.805-5.01c1.107 1.449.738 5.01-2.748 5.01h-9.888v-3.066h4.392c.803 0 .938-.758.468-1.418l-4.122-5.505c-1.14-1.45-.771-5.01 2.714-5.01h9.888v3.033h-4.356c-.839 0-.972.79-.471 1.417zM68.071 5h13.44v3.164H74.64v2.868h6.872v2.966H74.64v2.804h6.872v3.197H68.07zm136.722 0h13.44v3.164h-6.871v2.868h6.872v2.966h-6.872v2.804h6.872v3.197h-13.441zM156.09 5h13.44v3.164h-6.87v2.868h6.87v2.966h-6.87v2.804h6.87v3.197h-13.44zm-55.708 9.33V5h3.15v14.999h-6.937l-6.269-9.297V20H87.21V5h6.904zm21.652 0V5h3.152v14.999h-6.905l-6.268-9.297V20h-3.152V5h6.906zM175.095 5h6.627v15h-6.627zM131.22 5h6.672v5.702h5.26V5h6.637v14.999h-6.636v-5.67h-5.261V20h-6.672zm102.298 9.033h-2.814v5.966H224.1V5h13.776c1.743 0 4.124 1.318 4.424 4.086.168 1.749-.536 3.364-2.949 4.485l3.42 6.428h-5.967zm-2.814-2.958h3.855c.837 0 1.54-.694 1.54-1.522 0-.859-.703-1.52-1.54-1.52h-3.855z"/></g></g></g></svg>