<svg xmlns="http://www.w3.org/2000/svg" width="125" height="28" viewBox="0 0 125 28"><g><g><g/><g><path fill="#6994a8" d="M92.782 16.598c0-2.293-1.362-4.36-3.452-5.237a5.537 5.537 0 0 0-6.094 1.229 5.725 5.725 0 0 0-1.212 6.177c.866 2.118 2.905 3.5 5.166 3.5 3.087 0 5.59-2.536 5.592-5.665zm5.807.004V16.6v-.002zM87.19 28c-6.294 0-11.398-5.106-11.398-11.402 0-6.296 5.104-11.402 11.398-11.402S98.588 10.303 98.59 16.6C98.588 22.895 93.484 28 87.19 28zm37.44-.125h-7.013l-6.366-9.135-2.06 1.884v7.26h-6.56l.031-27.862h6.494v13.076l6.593-6.681h7.645L115.4 14.52zM44.678 14.516L53.9 27.875h-7.01l-6.366-9.135-2.04 1.884v7.26h-6.558l.02-27.862h6.496v13.076l6.59-6.681h7.648zM22.62 8.895h6.538v18.988H22.62zm3.23-2.312a3.203 3.203 0 0 1-2.284-.956 3.292 3.292 0 0 1-.946-2.313C22.619 1.507 24.062.042 25.845.04c1.782 0 3.228 1.463 3.229 3.27.001 1.806-1.443 3.271-3.225 3.273zM76.233 0L74.32 5.776H68.9v22.107h-6.668V5.776h-6.71V0zM.63 0h20.712l-1.914 5.776H14v22.107H7.34V5.776H.63z"/></g></g></g></svg>