<svg xmlns="http://www.w3.org/2000/svg" width="236" height="20" viewBox="0 0 236 20"><g><g><path fill="#f9f8ff" d="M13.576 9.448c1.685 0 2.846-.165 3.482-.495.636-.328.954-1.003.954-2.022 0-.939-.231-1.595-.69-1.964-.462-.369-1.593-.554-3.394-.554H5.934v5.035zm22.417 2.494h8.551l-4.32-8.345zM54.473 20h-6.198l-1.88-3.74H34.11L32.32 20h-6.376l9.931-20h8.492zm21.15-5.235c.726-.835 1.087-2.178 1.087-4.03V7.746c0-1.127-.392-1.973-1.174-2.536-.785-.564-2.272-.847-4.465-.847h-8.052v11.654h7.698v.001c2.547 0 4.181-.416 4.906-1.253zm7.356-3.996c0 2.957-.686 5.236-2.057 6.833-1.371 1.6-4.154 2.398-8.35 2.398H56.965V0h14.64c3.92 0 6.784.585 8.598 1.75 1.814 1.165 2.718 3.057 2.718 5.67zM92.62 20H86.9V0h5.719zm23.826-11.796c0-1.376-.364-2.449-1.089-3.216-.727-.767-1.912-1.151-3.558-1.151h-4.881c-1.315 0-2.29.37-2.928 1.106-.638.739-.955 1.775-.955 3.11v3.77c0 1.294.314 2.303.942 3.023.628.717 1.607 1.074 2.942 1.074h4.881c1.666 0 2.857-.337 3.573-1.015.714-.677 1.073-1.703 1.073-3.08zm6.16-2.19v7.7c0 2.045-.927 3.605-2.777 4.676-1.85 1.073-3.932 1.61-6.244 1.61h-2.41c-2.175 0-3.6-.005-4.275-.008a60.35 60.35 0 0 1-1.778-.04c-2.213 0-4.13-.56-5.745-1.68-1.616-1.123-2.424-2.647-2.424-4.57V6.01c0-1.743.832-3.18 2.496-4.31C101.114.566 102.896 0 104.796 0h9.05c2.35 0 4.398.532 6.142 1.594 1.745 1.063 2.617 2.537 2.617 4.42zM151.9 20h-6.141v-8.058h-13.192V20h-6.052V0h6.052v7.626h13.192V0h6.141zM177 20h-20.445V0h20.297v4.413h-14.436v3.404h13.76v3.835h-13.76v4.125H177zm12.028-8.058h8.55l-4.322-8.345zM207.507 20h-6.201l-1.881-3.74h-12.283l-1.79 3.74h-6.377l9.933-20h8.492zm21.147-5.235c.724-.835 1.087-2.178 1.087-4.03V7.746c0-1.127-.392-1.973-1.177-2.536-.782-.564-2.27-.847-4.464-.847h-8.052v11.654h7.698v.001c2.548 0 4.183-.416 4.908-1.253zM236 10.769c0 2.957-.688 5.236-2.056 6.833-1.373 1.6-4.153 2.398-8.345 2.398h-15.602V0h14.633c3.918 0 6.782.585 8.595 1.75 1.813 1.165 2.718 3.057 2.718 5.67zM22.039 1.337c1.489.89 2.234 2.507 2.234 4.85 0 1.3-.457 2.447-1.367 3.437-.91.99-2.238 1.576-3.982 1.756 1.685 0 2.938.355 3.761 1.062.824.708 1.234 1.71 1.234 3.004v4.552h-6.14v-3.924c0-.872-.353-1.475-1.059-1.81-.705-.334-1.752-.502-3.144-.502h-7.64v6.236H0V0h14.488c3.545 0 6.063.446 7.55 1.337z"/></g></g></svg>