<svg xmlns="http://www.w3.org/2000/svg" width="122" height="31" viewBox="0 0 122 31"><g><g><path fill="#fff" d="M119.731 20.835a2.634 2.634 0 0 0-.747-1.987 2.686 2.686 0 0 0-1.98-.808 2.828 2.828 0 0 0-2.003.814 2.775 2.775 0 0 0-.828 1.981zm2.142 3.287c-.306 2-2.268 3.371-4.778 3.371-3.228 0-5.232-2.146-5.232-5.59 0-3.454 2.014-5.694 5.136-5.694 3.07 0 5.001 2.093 5.001 5.432v.774h-7.838v.137c-.073.82.212 1.631.784 2.228a2.901 2.901 0 0 0 2.202.891 2.513 2.513 0 0 0 2.562-1.549zm-16.177-7.778h2.173v1.875h.053a2.644 2.644 0 0 1 2.669-1.99c.262-.001.524.027.78.084v2.115a3.207 3.207 0 0 0-1.023-.137 2.304 2.304 0 0 0-1.774.725 2.267 2.267 0 0 0-.6 1.809v6.532h-2.278zm-4.199 5.507c0-2.377-1.097-3.78-2.943-3.78s-2.942 1.414-2.942 3.78c0 2.386 1.096 3.779 2.942 3.779s2.943-1.393 2.943-3.779zm-8.206 0c0-3.465 2.057-5.642 5.263-5.642 3.218 0 5.264 2.177 5.264 5.642 0 3.475-2.036 5.642-5.264 5.642-3.227 0-5.263-2.167-5.263-5.642zm-3.332-8.113v2.606h2.11v1.79h-2.11v6.071c0 .944.422 1.383 1.35 1.383.25-.004.5-.022.75-.052v1.78a6.301 6.301 0 0 1-1.266.104c-2.247 0-3.123-.838-3.123-2.973v-6.313h-1.613v-1.79h1.613v-2.606zm-14.264 9.41c.169 1.498 1.634 2.482 3.636 2.482 1.918 0 3.298-.984 3.298-2.335 0-1.172-.832-1.874-2.803-2.355l-1.971-.472c-2.792-.67-4.089-1.967-4.089-4.072C73.766 13.79 76.053 12 79.3 12c3.213 0 5.416 1.79 5.49 4.396h-2.297c-.138-1.507-1.392-2.417-3.226-2.417-1.833 0-3.088.92-3.088 2.26 0 1.068.802 1.697 2.762 2.178l1.675.408c3.12.733 4.417 1.978 4.417 4.188 0 2.826-2.266 4.596-5.87 4.596-3.373 0-5.65-1.729-5.798-4.46zm-10.411-1.297c0-2.23-1.161-3.695-2.933-3.695-1.74 0-2.91 1.496-2.91 3.695 0 2.219 1.17 3.705 2.91 3.705 1.772 0 2.933-1.455 2.933-3.705zm2.34 0c0 3.422-1.845 5.621-4.63 5.621a3.768 3.768 0 0 1-3.492-1.927h-.052V31h-2.278V16.344h2.205v1.832h.042a3.943 3.943 0 0 1 3.533-1.947c2.816 0 4.673 2.21 4.673 5.622zm-14.554 0c0-2.23-1.161-3.695-2.933-3.695-1.74 0-2.91 1.496-2.91 3.695 0 2.219 1.17 3.705 2.91 3.705 1.772 0 2.933-1.455 2.933-3.705zm2.341 0c0 3.422-1.845 5.621-4.63 5.621a3.768 3.768 0 0 1-3.492-1.927h-.053V31h-2.278V16.344h2.205v1.832h.042a3.943 3.943 0 0 1 3.533-1.947c2.817 0 4.673 2.21 4.673 5.622zm-20.96-.46h4.6l-2.268-6.627h-.063zm5.201 1.89h-5.801l-1.394 4.086H30l5.495-15.115h2.553l5.495 15.115h-2.499z"/></g><g><path fill="#fff" d="M113.091 4.522c-.005-.391.145-.767.414-1.044a1.4 1.4 0 0 1 1.02-.424c.376-.009.739.145.998.425.26.28.392.658.364 1.043zm2.791 1.825a1.319 1.319 0 0 1-1.317.687 1.447 1.447 0 0 1-1.087-.478 1.52 1.52 0 0 1-.387-1.145V5.35H117v-.39c0-1.78-.93-2.857-2.47-2.857a2.528 2.528 0 0 0-1.935.884 2.654 2.654 0 0 0-.617 2.076c-.1.749.125 1.505.617 2.068a2.488 2.488 0 0 0 1.94.856c1.082.12 2.093-.57 2.399-1.639zm-10.081 1.53h1.092V4.568a1.342 1.342 0 0 1 .37-1.05 1.276 1.276 0 0 1 1.024-.386c.772 0 1.183.458 1.183 1.363v3.382h1.094V4.22a1.895 1.895 0 0 0-.468-1.515 1.802 1.802 0 0 0-1.438-.597 1.698 1.698 0 0 0-1.688 1.015h-.087V0H105.8zM102.015.801v1.436h-.878v.942h.878v3.2c0 1.092.484 1.53 1.699 1.53.2-.003.398-.022.594-.058V6.92a3.564 3.564 0 0 1-.416.026c-.544 0-.783-.26-.783-.854V3.18h1.2v-.942h-1.2V.801zm-9.78 7.076h1.095V4.563c-.04-.377.084-.753.339-1.029.254-.276.614-.425.985-.407.81 0 1.197.453 1.197 1.363v3.387h1.095V4.21a1.869 1.869 0 0 0-.464-1.525 1.785 1.785 0 0 0-1.456-.582 1.657 1.657 0 0 0-1.656 1.01h-.081v-.9h-1.054zm-4.075-.894c-.95 0-1.484-.711-1.484-1.946 0-1.225.535-1.941 1.484-1.941.946 0 1.485.716 1.485 1.941 0 1.23-.539 1.946-1.485 1.946zm-2.612-1.936a2.713 2.713 0 0 0 1.224 2.545 2.56 2.56 0 0 0 2.763 0 2.713 2.713 0 0 0 1.224-2.545 2.712 2.712 0 0 0-1.225-2.54 2.559 2.559 0 0 0-2.76 0 2.712 2.712 0 0 0-1.226 2.54zm-8.56 0c0-1.195.559-1.925 1.478-1.925.915 0 1.49.746 1.49 1.93 0 1.19-.569 1.925-1.49 1.925-.925 0-1.479-.725-1.479-1.93zm1.168 2.923a1.912 1.912 0 0 0 1.739-.988h.086v.895h1.047V0h-1.092v3.112h-.082a1.817 1.817 0 0 0-1.698-.994c-1.398 0-2.297 1.134-2.297 2.924 0 1.794.89 2.929 2.297 2.928zm-5.28-1.249c-.271.234-.622.345-.974.308-.594 0-1.027-.296-1.027-.806 0-.5.346-.765 1.108-.817l1.352-.089v.474c-.024.36-.19.697-.46.93zm-3.1-.446c.003.483.204.944.555 1.267.35.323.818.479 1.287.428a1.846 1.846 0 0 0 1.66-.889h.086v.796h1.049v-3.87c0-1.198-.781-1.905-2.166-1.905-1.253 0-2.145.624-2.257 1.598h1.056c.12-.4.542-.63 1.15-.63.746 0 1.132.338 1.132.936v.49l-1.497.088c-1.314.083-2.054.671-2.054 1.69zm-2.273-1.238c0 1.23-.54 1.946-1.485 1.946-.95 0-1.484-.711-1.484-1.946 0-1.225.534-1.941 1.484-1.941.946 0 1.485.716 1.485 1.941zm-4.098.01a2.711 2.711 0 0 0 1.227 2.545c.847.54 1.92.54 2.768 0a2.711 2.711 0 0 0 1.227-2.545 2.71 2.71 0 0 0-1.228-2.54 2.568 2.568 0 0 0-2.766 0 2.71 2.71 0 0 0-1.228 2.54zm-2.61 2.83h1.092V0h-1.093zm-6.443 0h1.093V4.563c-.04-.377.084-.753.338-1.029.254-.276.613-.425.983-.407.808 0 1.195.453 1.195 1.363v3.387h1.092V4.21a1.871 1.871 0 0 0-.463-1.525 1.779 1.779 0 0 0-1.453-.582 1.653 1.653 0 0 0-1.652 1.01h-.081v-.9h-1.052zM53.07 2.212h-1.093l-.986 4.323h-.087l-1.138-4.323h-1.048L47.58 6.535h-.082l-.991-4.323h-1.108l1.525 5.665h1.123l1.14-4.173h.086l1.144 4.173h1.133zm-9.584 2.825c0 1.23-.539 1.946-1.485 1.946-.95 0-1.484-.711-1.484-1.946 0-1.225.535-1.941 1.484-1.941.946 0 1.485.716 1.485 1.941zm-2.873 2.555a2.56 2.56 0 0 0 2.763 0 2.713 2.713 0 0 0 1.224-2.545 2.712 2.712 0 0 0-1.225-2.54 2.559 2.559 0 0 0-2.76 0 2.712 2.712 0 0 0-1.226 2.54 2.713 2.713 0 0 0 1.224 2.545zM33.139 1.43h1.383c.69-.04 1.36.239 1.828.758.468.52.685 1.226.591 1.926a2.397 2.397 0 0 1-.581 1.94 2.28 2.28 0 0 1-1.838.76H33.14zM32 .37v7.507h2.65C36.834 7.877 38.1 6.5 38.1 4.1a3.37 3.37 0 0 0-.863-2.701A3.205 3.205 0 0 0 34.65.369z"/></g><g><path fill="#fff" d="M16.367 1a6.16 6.16 0 0 0-3.983 2.058 5.743 5.743 0 0 0-1.42 4.168 5.093 5.093 0 0 0 4.019-1.898A6.035 6.035 0 0 0 16.367 1zm4.934 9.21a6.293 6.293 0 0 0-4.956-2.675c-2.085-.218-4.107 1.246-5.17 1.246-1.082 0-2.718-1.224-4.48-1.188a6.602 6.602 0 0 0-5.555 3.382C-1.26 15.127.53 21.23 2.83 24.585c1.152 1.643 2.497 3.478 4.257 3.413 1.723-.071 2.366-1.096 4.445-1.096 2.06 0 2.663 1.096 4.46 1.055 1.847-.03 3.012-1.65 4.122-3.31A13.583 13.583 0 0 0 22 20.813a5.93 5.93 0 0 1-3.625-5.454 6.134 6.134 0 0 1 2.926-5.149z"/></g></g></svg>