<svg xmlns="http://www.w3.org/2000/svg" width="142" height="35" viewBox="0 0 142 35"><defs><linearGradient id="gqvja" x1="14.88" x2="-5.94" y1="4.11" y2="24.76" gradientUnits="userSpaceOnUse"><stop offset="0" stop-color="#00a0ff"/><stop offset=".01" stop-color="#00a1ff"/><stop offset=".26" stop-color="#00beff"/><stop offset=".51" stop-color="#00d2ff"/><stop offset=".76" stop-color="#00dfff"/><stop offset="1" stop-color="#00e3ff"/></linearGradient><linearGradient id="gqvjb" x1="29.79" x2="-.19" y1="18" y2="18" gradientUnits="userSpaceOnUse"><stop offset="0" stop-color="#ffe000"/><stop offset=".41" stop-color="#ffbd00"/><stop offset=".78" stop-color="orange"/><stop offset="1" stop-color="#ff9c00"/></linearGradient><linearGradient id="gqvjc" x1="18.63" x2="-9.59" y1="20.83" y2="48.82" gradientUnits="userSpaceOnUse"><stop offset="0" stop-color="#ff3a44"/><stop offset="1" stop-color="#c31162"/></linearGradient><linearGradient id="gqvjd" x1="-3.11" x2="9.49" y1="-6.39" y2="6.11" gradientUnits="userSpaceOnUse"><stop offset="0" stop-color="#32a071"/><stop offset=".07" stop-color="#2da771"/><stop offset=".48" stop-color="#15cf74"/><stop offset=".8" stop-color="#06e775"/><stop offset="1" stop-color="#00f076"/></linearGradient></defs><g><g><path fill="#fff" d="M118.873 14.624h2.29V30.06h-2.29zM142 20.18l-6.268 14.56h-2.388l2.326-5.2-4.076-9.36h2.448l2.718 6.693h.073l2.62-6.693zm-15.5 8.126a2.776 2.776 0 0 0 2.682-2.47 4.037 4.037 0 0 0-2.082-.519c-1.15 0-2.448.408-2.448 1.643 0 .926 1.04 1.309 1.787 1.309zm.282-8.46c2.608 0 4.64 1.57 4.64 4.277v5.946h-2.204v-1.236h-.073a3.21 3.21 0 0 1-2.938 1.483 3.517 3.517 0 0 1-2.61-.89 3.586 3.586 0 0 1-1.186-2.51c0-2.236 2.216-3.473 4.408-3.473.832-.003 1.652.2 2.387.594v-.16a2.231 2.231 0 0 0-.81-1.514 2.189 2.189 0 0 0-1.638-.477 2.162 2.162 0 0 0-2.082 1.137l-2.032-.853a4.278 4.278 0 0 1 4.077-2.36zm-14.128 2.223c1.45 0 2.626-1.186 2.626-2.649s-1.176-2.649-2.626-2.649h-3.245v5.261h3.196zm-.037-7.446a4.75 4.75 0 0 1 4.408 2.29 4.84 4.84 0 0 1 0 5.002 4.75 4.75 0 0 1-4.408 2.29h-3.195v5.854h-2.29V14.624zM82.762 28.317h-.013zm-.004 0a2.91 2.91 0 0 0 2.066-.993 2.96 2.96 0 0 0 .722-2.198c.06-.798-.201-1.587-.725-2.188a2.934 2.934 0 0 0-2.06-1.004 3.193 3.193 0 0 0-2.897 3.192 3.193 3.193 0 0 0 2.894 3.19zm2.61-8.136h2.104v9.348c0 3.878-2.213 5.47-4.892 5.47a4.953 4.953 0 0 1-4.61-3.099l1.993-.84a2.876 2.876 0 0 0 2.617 1.865c1.712 0 2.776-1.074 2.776-3.087v-.753h-.073a3.532 3.532 0 0 1-2.74 1.235c-2.776-.136-4.958-2.449-4.958-5.255s2.182-5.119 4.958-5.255a3.654 3.654 0 0 1 2.74 1.235h.086zm3.755-5.557h2.29V30.06h-2.29zm10.308 8.394a2.018 2.018 0 0 0-1.934-1.108 2.846 2.846 0 0 0-1.997.952 2.878 2.878 0 0 0-.721 2.1zm2.706.756l-6.966 2.903a2.643 2.643 0 0 0 2.522 1.593 2.97 2.97 0 0 0 2.559-1.458l1.775 1.235a5.167 5.167 0 0 1-4.334 2.322 5.07 5.07 0 0 1-3.689-1.517 5.161 5.161 0 0 1-1.478-3.731 4.965 4.965 0 0 1 1.322-3.695 4.877 4.877 0 0 1 3.576-1.554 4.902 4.902 0 0 1 4.456 3.347zm-48.298-2.346c.085.46.126.928.122 1.396a7.447 7.447 0 0 1-1.91 5.21 7.313 7.313 0 0 1-5.644 2.286 8.076 8.076 0 0 1-7.27-3.984 8.224 8.224 0 0 1 0-8.346 8.076 8.076 0 0 1 7.27-3.984 7.667 7.667 0 0 1 5.546 2.31l-1.555 1.568a5.606 5.606 0 0 0-4.003-1.593c-3.246 0-5.877 2.654-5.877 5.927 0 3.274 2.631 5.928 5.877 5.928a5.387 5.387 0 0 0 4.077-1.63 4.675 4.675 0 0 0 1.224-2.803h-5.289V21.49zm6.133 6.889a2.998 2.998 0 0 0 2.136-.97c.553-.6.843-1.402.803-2.221a3.19 3.19 0 0 0-2.01-2.964 3.136 3.136 0 0 0-3.466.804 3.216 3.216 0 0 0-.529 3.552 3.154 3.154 0 0 0 3.079 1.799zm0-8.445a5.107 5.107 0 0 1 3.718 1.506c.985.99 1.53 2.34 1.51 3.743 0 2.897-2.327 5.246-5.199 5.248-2.872.002-5.203-2.343-5.207-5.24-.005-2.897 2.319-5.25 5.19-5.257zm11.41 8.435a3 3 0 0 0 2.136-.968c.553-.6.843-1.4.803-2.218a3.186 3.186 0 0 0-2.006-2.96 3.14 3.14 0 0 0-3.465.797 3.207 3.207 0 0 0-.538 3.544 3.155 3.155 0 0 0 3.07 1.805zm0-8.435a5.107 5.107 0 0 1 3.718 1.506c.986.99 1.53 2.34 1.51 3.743 0 2.895-2.324 5.243-5.195 5.248-2.87.004-5.202-2.337-5.21-5.232-.01-2.895 2.307-5.251 5.178-5.265z"/></g><g><path fill="#fff" d="M81.282 8.822V1.186h1.16l3.607 5.943V1.186H87v7.636h-.988l-3.767-6.223v6.223zm-3.146-1.621a3.344 3.344 0 0 0 0-4.384 2.783 2.783 0 0 0-4.019 0 3.344 3.344 0 0 0 0 4.384 2.783 2.783 0 0 0 4.02 0zm-4.72.637a4.22 4.22 0 0 1 0-5.67A3.778 3.778 0 0 1 76.136 1c1.022 0 2.002.42 2.721 1.167 1.466 1.589 1.466 4.082 0 5.671a3.778 3.778 0 0 1-5.44 0zm-6.275.984h-.951V2.128h-2.075v-.942h5.088v.942h-2.062zm-5.175 0V1.186h.943v7.636zm-5.755 0h-.951V2.128h-2.075v-.942h5.15v.942h-2.124zM52.16 2.128h-3.335v2.418h3.038v.916h-3.038V7.88h3.335v.942h-4.323V1.186h4.323zm-6.583 5.735a3.538 3.538 0 0 1-2.717 1.135c-1.566-.013-2.971-.993-3.567-2.487a4.108 4.108 0 0 1 .838-4.356 3.647 3.647 0 0 1 2.729-1.147 3.727 3.727 0 0 1 1.52.318c.446.186.844.479 1.16.854l-.655.675a2.436 2.436 0 0 0-2.025-.904 2.822 2.822 0 0 0-2.07.897 3.01 3.01 0 0 0-.808 2.161c-.016 1.215.677 2.32 1.758 2.803a2.848 2.848 0 0 0 3.183-.598c.38-.425.599-.977.617-1.555h-2.68V4.74h3.594c.033.19.05.382.05.574a3.517 3.517 0 0 1-.927 2.548z"/><path fill="none" stroke="#fff" stroke-miterlimit="20" stroke-width=".2" d="M81.282 8.822V1.186h1.16l3.607 5.943V1.186H87v7.636h-.988l-3.767-6.223v6.223zm-3.146-1.621a3.344 3.344 0 0 0 0-4.384 2.783 2.783 0 0 0-4.019 0 3.344 3.344 0 0 0 0 4.384 2.783 2.783 0 0 0 4.02 0zm-4.72.637a4.22 4.22 0 0 1 0-5.67A3.778 3.778 0 0 1 76.136 1c1.022 0 2.002.42 2.721 1.167 1.466 1.589 1.466 4.082 0 5.671a3.778 3.778 0 0 1-5.44 0zm-6.275.984h-.951V2.128h-2.075v-.942h5.088v.942h-2.062zm-5.175 0V1.186h.943v7.636zm-5.755 0h-.951V2.128h-2.075v-.942h5.15v.942h-2.124zM52.16 2.128h-3.335v2.418h3.038v.916h-3.038V7.88h3.335v.942h-4.323V1.186h4.323zm-6.583 5.735a3.538 3.538 0 0 1-2.717 1.135c-1.566-.013-2.971-.993-3.567-2.487a4.108 4.108 0 0 1 .838-4.356 3.647 3.647 0 0 1 2.729-1.147 3.727 3.727 0 0 1 1.52.318c.446.186.844.479 1.16.854l-.655.675a2.436 2.436 0 0 0-2.025-.904 2.822 2.822 0 0 0-2.07.897 3.01 3.01 0 0 0-.808 2.161c-.016 1.215.677 2.32 1.758 2.803a2.848 2.848 0 0 0 3.183-.598c.38-.425.599-.977.617-1.555h-2.68V4.74h3.594c.033.19.05.382.05.574a3.517 3.517 0 0 1-.927 2.548z"/></g><g><path fill="url(#gqvja)" d="M.785 2.666a2.45 2.45 0 0 0-.57 1.723v27.225a2.45 2.45 0 0 0 .57 1.723l.087.086 15.363-15.237v-.357L.872 2.58z"/></g><g><path fill="url(#gqvjb)" d="M21.324 23.265l-5.084-5.083v-.357l5.084-5.095.112.062 6.088 3.433c1.736.973 1.736 2.573 0 3.557l-6.064 3.422z"/></g><g><path fill="url(#gqvjc)" d="M21.473 23.194L16.24 18 .79 33.335c.73.637 1.813.668 2.58.074l18.116-10.215"/></g><g><path fill="url(#gqvjd)" d="M21.466 12.81L3.349 2.597a2.033 2.033 0 0 0-2.579.073l15.463 15.336z"/></g></g></svg>